<?xml version="1.0" encoding="UTF-8"?>
<svg width="64" height="64" version="1.1" viewBox="0 0 64 64" xmlns="http://www.w3.org/2000/svg">
<path d="m62.554 23.449c-3.8513 0.02498-8.4344 0.20762-11.818 1.047-3.455 0.85702-6.6587 2.6666-9.6114 4.0621-4.274 2.02-8.4038 4.4904-12.373 6.7757-11.789 6.7874-34.243 21.333-34.243 21.333l2.0606 3.1798s22.511-14.573 34.073-21.23c4.0053-2.306 8.0557-4.7213 12.101-6.6333 3.1111-1.4704 6.1655-3.1329 8.9048-3.8124 2.6873-0.66658 7.203-0.90995 10.932-0.93414 3.7292-0.02419 6.7073 0.13688 6.7073 0.13688l0.20348-3.7828s-3.0853-0.16741-6.9366-0.14243z" fill="#795f4a"/>
<path d="m62.552 22.976c-3.8639 0.02507-8.464 0.20038-11.929 1.0599-3.5398 0.87805-6.7709 2.7091-9.7002 4.0935-4.3023 2.0333-8.4419 4.5117-12.406 6.7942-11.817 6.8036-34.265 21.346-34.265 21.346a0.47359 0.47359 0 0 0-0.13873 0.65482l2.0606 3.1798a0.47359 0.47359 0 0 0 0.65482 0.14058s22.518-14.577 34.051-21.217c4.0096-2.3085 8.0513-4.7183 12.068-6.6166 3.1275-1.4781 6.1721-3.1251 8.816-3.7809 2.5931-0.64322 7.1101-0.89527 10.821-0.91934 3.7139-0.02409 6.6795 0.13503 6.6795 0.13503a0.47359 0.47359 0 0 0 0.49759-0.44764l0.20348-3.7828a0.47359 0.47359 0 0 0-0.44764-0.49759s-3.0977-0.16751-6.9644-0.14243zm0.0056 0.94708c3.573-0.02318 6.0532 0.11162 6.4354 0.13133l-0.15353 2.8376c-0.38079-0.01956-2.7803-0.15021-6.2615-0.12764-3.7473 0.0243-8.2617 0.25714-11.043 0.94708-2.8346 0.70313-5.8989 2.3812-8.9936 3.8438-4.0744 1.9256-8.1335 4.3482-12.135 6.6518-11.408 6.5683-33.011 20.543-33.697 20.988l-1.5446-2.3844c0.68503-0.44353 22.247-14.4 33.823-21.065 3.9741-2.2881 8.0941-4.7525 12.34-6.7591 2.976-1.4065 6.1524-3.1947 9.5226-4.0307 3.3024-0.81916 7.8684-1.0073 11.707-1.0322z" fill="#010600"/>
<path d="m36.38 1.8136 0.46984 2.0385s-2.731-1.7796-6.1801-1.6481c-3.4491 0.13144-6.3703 0.99186-8.1168 1.6648-2.759 1.0631-7.4245 3.6114-10.655 6.6906-3.5166 3.3523-6.387 7.434-7.8652 11.975-1.4339 4.4053-1.1908 10.744-0.66962 13.883 2.1015 12.655 7.5213 22.377 13.57 24.915 9.5042 3.988 19.254-6.9074 12.355-13.807-3.0104-3.0104-7.4117-3.1-9.5633-0.19423-1.5465 2.0885-1.5672 2.0556-1.0118-1.6574 0.31168-2.0836 0.5714-5.2601 0.57713-7.0587l0.0111-3.2704 3.5923 3.5072c2.7516 2.6868 4.3633 3.5072 6.8923 3.5072 3.9872 0 7.5101-2.2623 7.5101-4.8224 0-1.5591 0.30704-1.7092 1.8313-0.89344 2.4888 1.332 3.4582 1.2365 5.2034-0.50869 2.1502-2.1502 1.9149-5.1405-0.4051-5.1405-2.4485 0-2.3911-0.70267 0.23677-2.8949l2.1309-1.7776-4.7354-0.12763c-5.3426-0.14492-5.0026-0.29056 7.5767-3.2408 11.802-2.7681 11.377-2.5261 11.26-6.4095-0.13405-4.438-2.6215-7.7153-6.3336-9.6281-4.9964-2.5746-17.68-5.1017-17.68-5.1017zm-5.8786 27.782c0.65374-0.04784 1.1353 0.09568 1.4669 0.4273 0.66323 0.66323 0.55968 0.97113-0.32741 0.97113-0.71428 0-1.9987 0.63345-2.8542 1.4077-1.1948 1.0813-1.8148 1.1485-2.6729 0.29042-0.8581-0.8581-0.4216-1.4098 1.8831-2.3788 1.0247-0.43086 1.8508-0.66988 2.5046-0.71771zm3.6459 3.1557c0.57275-0.02627 1.1412 0.07684 1.637 0.34221 1.7542 0.93882 1.7347 1.0312-0.46059 2.2475-2.8401 1.5735-4.6577 1.6725-4.6577 0.25527 0-1.524 1.763-2.7661 3.4813-2.845z" fill="#dedea5"/>
<path d="m52.845 13.371c1.0101-0.56656 1.7237-2.549 0.24207-4.5691-1.7326-2.3623-5.3736-1.188-5.3736 1.7352 0 3.2893 2.9039 4.0834 5.1315 2.834z" fill="#fff"/>
<path d="m50.527 9.7381c-0.77016 0-1.404 0.63567-1.404 1.4058s0.63382 1.404 1.404 1.404c0.77016 0 1.4058-0.63382 1.4058-1.404s-0.63567-1.4058-1.4058-1.4058zm0 0.94708c0.25832 0 0.45874 0.20043 0.45874 0.45874 0 0.25832-0.20043 0.45689-0.45874 0.45689-0.25832 0-0.45689-0.19858-0.45689-0.45689 0-0.25832 0.19858-0.45874 0.45689-0.45874zm-33.594 50.648c-6.0486-2.5381-11.469-12.261-13.571-24.915-0.52116-3.1382-0.76394-9.4769 0.67001-13.882 1.4783-4.5414 4.3492-8.6234 7.8658-11.976 3.2302-3.0792 7.8953-5.6272 10.654-6.6903 1.7465-0.67294 4.6684-1.5342 8.1175-1.6656 3.4491-0.13144 6.1794 1.6489 6.1794 1.6489l-0.4688-2.0391s12.683 2.5273 17.679 5.1018c3.7121 1.9128 6.2002 5.1896 6.3343 9.6276 0.1173 3.8834 0.54234 3.6414-11.26 6.4095-12.579 2.9502-12.919 3.0957-7.5767 3.2406l4.7354 0.12845-2.1309 1.7777c-2.6278 2.1922-2.6853 2.8947-0.23677 2.8947 2.32 0 2.5561 2.9911 0.40589 5.1413-1.7452 1.7452-2.7148 1.8398-5.2036 0.50787-1.5242-0.81574-1.8319-0.6657-1.8319 0.89338 0 2.5601-3.5235 4.8224-7.5107 4.8224-2.5289 0-4.1408-0.82017-6.8924-3.507l-3.5915-3.507-0.01043 3.2702c-0.0058 1.7986-0.26544 4.975-0.57712 7.0586-0.55542 3.713-0.5353 3.7459 1.0112 1.6574 2.1517-2.9058 6.5534-2.8166 9.5638 0.19372 6.8993 6.8993-2.851 17.796-12.355 13.808zm11.227-3.3018c3.8837-3.5993 2.9353-9.1531-1.8755-10.982-4.4649-1.6976-8.2599 2.5206-6.0248 6.6968 1.352 2.5262 5.1973 2.2181 5.1973-0.41632 0-0.99838-0.63928-1.9898-1.4206-2.203-1.2628-0.34471-1.2628-0.27616 0 0.61689 1.2259 0.86697 1.1934 1.0067-0.23677 1.0192-0.91157 8e-3 -1.6574-0.59963-1.6574-1.3502 0-2.4039 1.9263-2.6127 4.1075-0.63121 1.7441 1.5845 0.44313 5.5768-2.9901 5.6832-2.7808 0.08619-3.6936-0.84709-5.1672-3.9765-1.4606-3.1019-1.5547-4.389-0.67548-9.2374 0.56184-3.0984 0.74198-7.1235 0.4003-8.9448-0.75639-4.0319 0.4996-4.2861 2.7078-0.54799 2.2615 3.8284 7.0379 7.6604 9.5034 7.6244 2.0394-0.02984 5.3731-1.9857 5.3731-3.1523 0-0.33325-1.2786-0.6059-2.8413-0.6059-2.2645 0-2.8413-0.40804-2.8413-2.0101 0-1.5551-0.28231-1.7758-1.2471-0.97514-0.95755 0.7947-2.3236-0.05793-5.8837-3.6724-6.399-6.4967-8.0226-6.3151-8.0226 0.89768 0 5.7405-0.67182 8.882-1.7566 8.2141-0.33609-0.20691-0.39798-3.5074-0.13753-7.3345 0.47192-6.9344 1.3659-7.2785 2.7803-7.8792 1.4143-0.60069 4.055 1.0178 5.7016 2.7705 2.5702 2.7359 2.749 2.7765 6.2931 1.429l2.5862-0.98328-3.567-3.6529c-2.7057-2.7709-3.4141-4.1345-2.934-5.6473 0.80165-2.5258 2.6771-3.4751 8.3182-4.2108 6.4278-0.83822 5.5829 0.79275-0.94708 1.8283-8.0296 1.2734-7.7951 3.0042 1.6295 12.028 4.2807 4.0987 8.454 7.3036 9.5104 7.3036 2.4847 0 2.389-1.6539-0.21775-3.7647-1.881-1.5231-1.9551-1.8774-0.71031-3.3941 1.2764-1.5552 1.2067-1.6462-0.85365-1.1148-2.323 0.59906-7.8728-2.2427-10.454-5.3531-1.7505-2.1092-1.2938-2.428 5.2164-3.2012 3.7011-0.43961 4.8839-0.98769 5.1447-2.8232 0.16634-1.1706-0.21251-3.3593-0.64915-4.8807-0.62476-1.559-1.3437-3.3458-1.8929-4.2759-1.9059-3.2275-8.4957-4.1212-14.204-1.7712-2.1528 0.88633-6.5736 3.0052-9.9577 6.1885-3.384 3.1833-5.6701 6.1958-7.1779 10.017-1.4302 3.6244-1.9322 7.7168-1.5145 11.591 0.45172 4.1894 1.3234 8.9644 2.7735 13.279 1.4501 4.3144 3.4788 8.1684 5.7709 10.516 3.0876 3.162 4.6635 3.9003 7.5069 4.0915 2.6118 0.17561 5.4233-1.0282 7.3366-2.8013zm7.1636-22.69c2.1953-1.2163 2.2143-1.3091 0.46008-2.248-1.9834-1.0615-5.1177 0.47227-5.1177 2.5043 0 1.4172 1.8175 1.3172 4.6576-0.25635zm-3.6833-4.3467c0.88709 0 0.99096-0.30773 0.32773-0.97097-0.66323-0.66323-1.9219-0.57114-3.9713 0.29058-2.3047 0.96904-2.7413 1.5206-1.8832 2.3787 0.8581 0.8581 1.4778 0.79072 2.6726-0.29058 0.85552-0.77423 2.1399-1.4077 2.8542-1.4077zm6.3121-11.024c-0.15552-0.15552-1.8722-0.02484-3.8148 0.2904-3.3874 0.5497-3.4661 0.64606-1.9211 2.3532 1.5726 1.7377 1.6633 1.7308 3.8148-0.2904 1.2121-1.1387 2.0766-2.1977 1.9211-2.3532zm9.2875 1.9694c12.111-2.7086 12.999-3.2378 4.8574-2.8946-8.845 0.37288-7.5765-1.0929 1.6994-1.9495l5.7936-0.53502s-1.2414-3.7157-2.1055-4.8621-2.7561-2.1092-2.7561-2.1092 0.4672 1.1175 0.35983 1.8768c-0.16283 1.1514-0.84972 3.1116-3.7785 3.3938-3.9463 0.38033-5.5586-3.1534-4.4631-5.7998 0.48767-1.1781 1.5184-1.8964 1.964-2.1555 0 0-0.28247-0.29512-2.4056-0.9602-3.0356-1.0194-7.8408-2.0058-7.8408-2.0058l3.0658 7.868s1.7043 4.8756-1.6794 8.4879c-3.5629 3.8036-2.8607 3.9153 7.2889 1.6453zm5.605-8.5679c1.0101-0.56656 1.7237-2.549 0.24207-4.5691-1.7326-2.3623-5.3736-1.188-5.3736 1.7352 0 3.2893 2.9039 4.0834 5.1315 2.834z"/>
</svg>
